<?xml version="1.0" encoding="UTF-8" standalone="no"?>
<!-- Created with Inkscape (http://www.inkscape.org/) -->

<svg
   width="350"
   height="350"
   viewBox="0 0 92.604167 92.604167"
   version="1.1"
   id="svg1"
   xml:space="preserve"
   xmlns="http://www.w3.org/2000/svg"
   xmlns:svg="http://www.w3.org/2000/svg"
   xmlns:rdf="http://www.w3.org/1999/02/22-rdf-syntax-ns#"
   xmlns:cc="http://creativecommons.org/ns#"
   xmlns:dc="http://purl.org/dc/elements/1.1/"><title
     id="title27">Bangladesh Road Transport Authority (BRTA) - বাংলাদেশ সড়ক পরিবহন কর্তৃপক্ষ (বিআরটিএ)</title><defs
     id="defs1" /><g
     id="layer1"
     transform="translate(-50.075597,-29.259753)"><g
       id="g27"
       transform="matrix(0.37350056,0,0,0.37350056,43.013788,22.197944)"><path
         id="circle27"
         style="opacity:1;vector-effect:none;fill:#005902;fill-rule:evenodd;stroke-width:0.392602;stop-color:#000000;stop-opacity:1"
         d="M 266.13452,142.875 A 123.25952,123.25952 0 0 1 142.875,266.13452 123.25952,123.25952 0 0 1 19.61548,142.875 123.25952,123.25952 0 0 1 142.875,19.61548 123.25952,123.25952 0 0 1 266.13452,142.875 Z" /><path
         id="path26"
         style="opacity:1;vector-effect:none;fill:#ffffff;fill-rule:evenodd;stroke-width:0.387257;stop-color:#000000;stop-opacity:1"
         d="M 264.45673,142.875 A 121.58173,121.58173 0 0 1 142.875,264.45673 121.58173,121.58173 0 0 1 21.293269,142.875 121.58173,121.58173 0 0 1 142.875,21.293269 121.58173,121.58173 0 0 1 264.45673,142.875 Z" /><path
         id="path9"
         style="font-variation-settings:normal;vector-effect:none;fill:#005902;fill-opacity:1;stroke:none;stroke-width:0.266316;stroke-linecap:butt;stroke-linejoin:miter;stroke-miterlimit:4;stroke-dasharray:none;stroke-dashoffset:0;stroke-opacity:1;-inkscape-stroke:none;stop-color:#000000"
         d="m 142.875,41.226941 -12.23388,63.404399 a 40.209949,40.209949 0 0 1 12.23388,-1.96629 40.209949,40.209949 0 0 1 12.22354,1.91358 z M 103.67739,151.36854 54.845231,193.69929 115.87096,172.59153 a 40.209949,40.209949 0 0 1 -12.19357,-21.22299 z m 78.39522,0 a 40.209949,40.209949 0 0 1 -12.19357,21.22299 l 61.02573,21.10776 z" /><path
         id="path1"
         style="color:#000000;display:inline;fill:#000000;fill-opacity:1;fill-rule:evenodd;-inkscape-stroke:none"
         d="m 142.875,30.02349 c -62.274285,0 -112.851509,50.577222 -112.85151,112.85151 1e-6,62.27429 50.577225,112.85151 112.85151,112.85151 62.27429,0 112.85151,-50.57722 112.85151,-112.85151 0,-62.274288 -50.57722,-112.85151 -112.85151,-112.85151 z m 0,8.730217 c 6.67813,0 13.1993,0.652821 19.52594,1.85105 -7.05087,27.568662 -3.81931,57.788416 11.51506,84.348343 15.3373,26.56499 39.89902,44.47519 67.30597,52.15082 -4.35777,12.54185 -11.04082,23.98068 -19.53938,33.81706 -20.34987,-19.89131 -48.13815,-32.20217 -78.80759,-32.20217 -30.66944,0 -58.457726,12.31086 -78.807593,32.20217 -8.498558,-9.83638 -15.181612,-21.27521 -19.539376,-33.81706 27.406948,-7.67563 51.968658,-25.58583 67.305969,-52.15082 15.33437,-26.559927 18.56593,-56.779681 11.51506,-84.348343 6.32664,-1.198229 12.84781,-1.85105 19.52594,-1.85105 z m -27.98641,3.827673 c 6.55947,25.465695 3.5877,53.403503 -10.61692,78.00661 -14.209214,24.61108 -36.928035,41.15489 -62.271133,48.20274 -2.117824,-8.28402 -3.24683,-16.96657 -3.24683,-25.91573 0,-47.853782 32.202129,-88.081782 76.134883,-100.29362 z m 55.97282,0 c 43.93275,12.211838 76.13488,52.439838 76.13488,100.29362 0,8.94916 -1.129,17.63171 -3.24683,25.91573 -25.34309,-7.04785 -48.06191,-23.59166 -62.27113,-48.20274 C 167.27371,95.984883 164.30194,68.047075 170.86141,42.58138 Z m 15.24919,10.515637 c -0.55476,0.04337 -1.04833,0.450664 -1.26348,0.906405 -0.42608,0.902515 -0.22401,1.687377 0.2837,2.352311 0.84832,1.111038 2.62196,1.957856 3.84679,2.458248 0.25088,0.09723 0.42971,0.215799 0.54829,0.347266 0.31441,0.348574 0.20301,0.787007 -0.11524,1.192692 -0.13918,-0.07844 -0.27849,-0.15688 -0.41806,-0.234611 -1.49226,-0.831076 -3.00713,-1.621731 -4.54184,-2.370915 -1.22009,-0.595597 -2.45271,-1.164637 -3.69694,-1.707389 0.23662,0.660804 0.46465,1.321704 0.6842,1.982824 0.78506,0.35671 1.56546,0.724469 2.34043,1.102776 0.004,0.0018 0.008,0.0033 0.0114,0.0052 l -2.67168,5.470467 c -0.002,0.0066 -0.003,0.01355 -0.005,0.02015 -0.22269,0.769355 -0.25896,1.45923 -0.0946,2.053105 0.16641,0.601222 0.56086,1.063818 1.14722,1.371492 0.65069,0.341431 1.44534,0.340256 2.34662,0.117306 0.18019,-0.04457 0.36462,-0.09831 0.55294,-0.15968 l -1.6552,2.939355 c -9.1e-4,-0.01674 -0.002,-0.0339 -0.003,-0.05064 l -0.001,-0.0057 c -0.0229,-0.193097 -0.0611,-0.370687 -0.11318,-0.534335 -0.55349,-1.737911 -2.59317,-1.880098 -3.58996,-2.87941 -0.14577,-0.146139 -0.27011,-0.311354 -0.36587,-0.504362 -0.51775,-1.043615 0.50452,-2.158377 0.601,-2.227771 -0.10323,-0.331091 -0.20846,-0.662623 -0.31626,-0.993738 -0.55204,0.540886 -1.04451,1.180255 -1.3932,1.892391 -0.41474,0.906312 -0.5369,1.718865 -0.33796,2.402437 0.16106,0.553369 0.49648,0.943357 0.92242,1.254187 1.16961,0.853517 3.04801,1.143464 3.72949,2.402954 0.0944,0.174376 0.16537,0.36676 0.20774,0.580843 0.0929,0.469508 0.23161,1.5008 0.4191,1.610238 l 4.08399,-6.996472 c 0.39978,-0.345876 0.74143,-0.724286 0.99218,-1.150834 0.16977,-0.288788 0.29706,-0.5967 0.38034,-0.920874 0.1,-0.327512 0.15039,-0.637941 0.14418,-0.932243 v -0.0021 -0.0026 c -0.0302,-0.741898 -0.35622,-1.337192 -0.93948,-1.681551 -0.0147,-0.0087 -0.0294,-0.01694 -0.0444,-0.02532 -0.40373,-0.224554 -0.84548,-0.271465 -1.25935,-0.126607 l -0.002,5.17e-4 -0.003,5.17e-4 c -0.3967,0.150352 -0.71074,0.443279 -0.92294,0.840775 -0.0991,0.18563 -0.1535,0.386485 -0.16071,0.591695 l -5.2e-4,0.01189 c 2.3e-4,0.0044 2.9e-4,0.0085 5.2e-4,0.01292 0.0124,0.184918 0.0495,0.366944 0.11058,0.54467 0.0625,0.181799 0.15283,0.35359 0.26924,0.51418 l 0.004,0.0067 0.005,0.0052 c 0.12305,0.148085 0.261,0.274599 0.41393,0.376204 0.008,0.0047 0.0155,0.0093 0.0233,0.01395 0.007,0.0025 0.0137,0.0047 0.0207,0.0072 l 0.003,10e-4 c -0.002,0.0028 -0.005,0.0055 -0.008,0.0083 -0.38573,0.443953 -0.87779,0.814688 -1.55598,1.083655 l -0.002,5.17e-4 -0.001,5.17e-4 c -0.90133,0.368141 -1.54888,0.405344 -1.99471,0.173632 -0.28719,-0.149259 -0.40791,-0.393203 -0.40515,-0.834057 l 2.84686,-5.593457 c 1.03597,0.527232 2.0617,1.074064 3.07733,1.639693 0.501,0.27902 0.99975,0.562366 1.49552,0.850594 0.68279,0.396956 1.5732,1.542517 0.84026,2.738851 l -4.15324,6.778914 c 0.0355,0.206822 0.0701,0.413538 0.10387,0.620117 0.0769,0.470308 0.14944,0.940253 0.21756,1.409217 l 6.12521,-9.640755 c 0.58067,0.368945 1.15725,0.744291 1.72961,1.126029 0.25468,1.174384 0.72746,1.767786 1.18339,2.228805 0.75297,0.761385 1.4562,1.147524 0.73639,3.050459 -0.004,0.002 -0.006,0.0048 -0.01,0.0067 0.099,-0.672684 0.13112,-1.987923 -0.84956,-2.881994 -0.0846,-0.07714 -0.17695,-0.150957 -0.27699,-0.220659 -1.62812,-1.134391 -3.38376,0.143214 -3.08147,1.483114 0.15808,0.700758 0.94037,1.274454 1.65158,1.166854 0.36838,-0.05573 0.72315,-0.295393 0.9586,-0.802535 0.58646,0.36039 0.53494,1.296108 0.29972,1.805574 -0.62161,0.150881 -1.59392,0.658426 -1.93683,0.415996 -0.0592,-0.04189 -0.0872,-0.15755 -0.0941,-0.319361 -0.01,-0.232647 0.0241,-0.562755 0.0724,-0.905371 -0.43214,0.02364 -0.86264,0.05022 -1.29191,0.08061 -0.14064,0.825894 -0.22034,1.762762 0.0682,2.464449 0.12558,0.305397 0.32097,0.567717 0.61392,0.762228 0.25623,0.170103 0.59517,0.17757 1.0542,0.101286 1.50135,-0.345952 3.37703,-1.125176 4.20232,-1.311031 0.40205,-0.09055 1.09526,0.272631 0.6041,1.305346 -0.27449,0.577184 -0.8362,1.373383 -1.65675,2.387451 -0.46488,0.574534 -1.13346,1.263597 -1.59835,1.838131 -0.002,0.09162 -0.003,0.1834 -0.005,0.274919 -0.0128,0.645058 -0.0333,1.287902 -0.061,1.928047 l 7.41401,-8.880595 c 1.00767,0.841235 1.99713,1.703822 2.9683,2.586923 0.0682,0.06202 0.13661,0.123808 0.20464,0.186035 -0.15082,0.02308 -0.29923,0.04914 -0.44494,0.07803 -1.89673,0.376126 -3.36548,1.236159 -4.51342,2.407088 -1.13298,1.155662 -1.96792,3.069791 -1.89135,4.636927 0.0366,0.748291 0.27841,1.426736 0.80821,1.94355 0.68491,0.668108 1.87971,0.852449 2.79467,-0.06408 0.3432,-0.343789 0.54929,-0.740075 0.58187,-1.163237 0.0406,-0.424145 -0.0931,-0.799018 -0.36793,-1.079521 -1.09765,-1.120224 -2.43756,0.147752 -2.39934,0.823206 -0.17399,-0.151164 -0.30048,-0.759268 -0.13074,-1.423169 0.0503,-0.243494 0.1286,-0.477868 0.22789,-0.702283 0.51625,-1.166809 1.5884,-2.03608 2.26343,-2.489253 0.0419,-0.02812 0.0821,-0.05488 0.12041,-0.07958 0.58329,-0.376573 1.18682,-0.647163 1.81332,-0.810803 h 0.001 c 7.5e-4,-1.31e-4 0.002,-0.0013 0.002,-0.001 0.67682,-0.16458 1.34994,-0.194056 2.02107,-0.08682 0.66387,0.106131 1.33758,0.370267 2.01848,0.786515 0.12555,0.07676 0.25148,0.153147 0.3762,0.23151 0.002,-0.673926 -0.003,-1.350873 -0.016,-2.02985 -0.79912,-0.780081 -1.61182,-1.545667 -2.43809,-2.297017 -1.32127,-1.201454 -2.67661,-2.365458 -4.06384,-3.490226 -1.68617,-1.36715 -3.41923,-2.676451 -5.19554,-3.924309 -1.22263,-0.858885 -2.46552,-1.68879 -3.72742,-2.488737 -0.10392,-0.605262 0.15023,-1.260503 0.2899,-1.607654 -0.0526,-0.152616 -0.10567,-0.305233 -0.15916,-0.457853 -0.071,-0.202506 -0.14287,-0.404699 -0.21549,-0.607198 -0.58742,0.900953 -1.07333,1.903171 -1.58285,2.847888 0.0379,-0.905004 -0.20476,-1.339442 -1.2299,-1.938899 0.43851,-0.811154 0.65897,-1.541185 0.54828,-2.179195 -0.0852,-0.519784 -0.36854,-0.991392 -0.82682,-1.404566 -0.2443,-0.22026 -0.53855,-0.42373 -0.87798,-0.608232 -0.75373,-0.40969 -3.44936,-1.023805 -3.66334,-2.129069 -0.0357,-0.184335 -0.007,-0.38528 0.10645,-0.60358 0.0682,-0.131068 0.18304,-0.207174 0.31523,-0.260966 0.0418,-0.01699 0.0854,-0.03143 0.1297,-0.04496 0.0929,-0.222368 0.18584,-0.445205 0.27854,-0.667659 -0.0165,-0.0076 -0.0331,-0.01439 -0.0496,-0.02119 -0.19044,-0.07816 -0.38249,-0.104374 -0.56741,-0.08992 z m -83.40938,3.197738 c -1.85051,0.858529 -3.673947,1.776444 -5.466328,2.75177 -1.978784,1.076774 -3.919384,2.223701 -5.817216,3.438033 -0.344191,0.220233 -0.687041,0.442503 -1.028361,0.667143 -0.623883,-0.122186 -1.125827,-0.595473 -1.411284,-0.882634 -0.405549,-0.01282 -0.812429,-0.02266 -1.22008,-0.02997 0.603015,0.956443 1.39005,1.844631 2.076359,2.739884 -0.544493,-0.434699 -1.464279,-0.46573 -2.184363,0.04496 -0.889491,0.630937 -1.768154,1.277229 -2.635498,1.938383 -2.5811,1.967532 -5.060716,4.066647 -7.427454,6.286955 -0.07018,0.197793 -0.128944,0.401617 -0.177766,0.608748 -0.146878,0.623171 -0.205941,1.277312 -0.238746,1.914612 -0.08966,1.743604 0.833315,3.948403 2.030367,5.270479 1.489225,1.644763 4.466176,2.692079 6.404261,1.452108 0.153826,-0.09842 0.301441,-0.211903 0.44235,-0.341064 0.79667,-0.730256 1.14693,-1.996164 0.287321,-2.964161 -0.322529,-0.363195 -0.719471,-0.58096 -1.166337,-0.614949 -0.446915,-0.04248 -0.862525,0.100223 -1.195793,0.392741 -0.433082,0.380078 -0.599013,0.795451 -0.599446,1.175122 -8.92e-4,0.773097 0.67949,1.400412 1.173571,1.370459 -0.182215,0.185609 -0.844354,0.323356 -1.527555,0.146761 -1.650184,-0.340455 -2.710776,-1.933894 -3.149162,-2.761589 -0.327876,-0.619018 -0.540833,-1.260211 -0.63717,-1.92598 v -0.0016 c -4.5e-5,-8.04e-4 -8.07e-4,-0.0018 -5.17e-4,-0.0021 -0.05117,-0.40393 -0.05724,-0.806417 -0.01757,-1.208195 0.03098,-0.313682 0.08985,-0.62694 0.176733,-0.939477 0.195955,-0.704795 0.55988,-1.421256 1.09244,-2.140438 1.762848,-1.56724 3.584459,-3.067958 5.460649,-4.497917 0.08819,-0.06721 0.176673,-0.134121 0.2651,-0.201021 l 0.23151,0.305924 c -0.06811,0.09318 -0.135862,0.18685 -0.202571,0.28112 -1.443042,2.039227 -2.553593,4.328561 -3.275769,6.826457 -0.02373,0.08144 -0.04734,0.163008 -0.0708,0.244429 0.932669,0.173845 1.857944,0.361451 2.776058,0.562757 0.0317,-0.02242 0.06336,-0.04481 0.09508,-0.06718 2.182929,-1.539572 4.228826,-1.363505 5.516459,-0.952913 0.85823,0.273655 1.417041,0.658497 1.527555,0.73794 0.528152,0.118283 1.053203,0.241462 1.575614,0.369486 l -6.794417,-9.331213 c 1.10777,-0.8066 1.831152,-1.078639 2.792595,-0.584978 0.233361,0.119824 0.432026,0.296713 0.599963,0.542603 l 4.483447,6.564457 c 0.714325,0.138339 1.423255,0.286269 2.127002,0.442867 l -6.268868,-9.549805 c 0.306073,-0.200922 0.613497,-0.400056 0.921908,-0.597379 1.509664,-0.965887 3.04667,-1.888474 4.609021,-2.76624 l 1.664498,2.962094 c 0.383263,0.682178 0.800111,1.148451 1.283125,1.381827 0.306895,0.148296 0.624205,0.182674 0.936375,0.128675 1.22896,-0.212587 2.45393,-1.846245 2.59674,-3.408061 0.39096,0.01279 0.6675,0.334951 0.79789,0.624768 0.18842,0.418896 0.22979,0.852802 0.13022,1.325501 l -5.2e-4,0.0016 -5.1e-4,0.0021 c -0.0892,0.471147 -0.2973,0.932282 -0.63097,1.39578 -0.32224,0.439225 -0.71779,0.773542 -1.2051,1.018026 l -0.002,0.001 -0.002,0.001 c -0.3188,0.168619 -0.63715,0.292663 -0.9586,0.37207 -1.03689,0.256134 -2.108096,0.04522 -3.300058,-0.65319 l -0.0015,-5.16e-4 -5.17e-4,-5.17e-4 c -0.574866,-0.329062 -1.151508,-0.760497 -1.725992,-1.296562 -0.576344,-0.53783 -1.108575,-1.122746 -1.591118,-1.760099 -0.02661,-0.03545 -0.05297,-0.07101 -0.07958,-0.106454 -0.490293,0.06836 -0.981628,0.141025 -1.473296,0.218075 0.08646,0.110533 0.173063,0.221153 0.259416,0.331763 1.87882,2.406256 3.659484,4.020452 5.321122,4.844148 1.283013,0.635998 2.527333,0.797975 3.710883,0.481108 0.357,-0.09558 0.70937,-0.234753 1.0573,-0.418062 1.14814,-0.604917 1.90574,-1.462776 2.2288,-2.57142 0.31305,-1.053823 0.21317,-2.17067 -0.31522,-3.307808 -0.15685,-0.337546 -0.35973,-0.653797 -0.60823,-0.946712 -0.25285,-0.303045 -0.53616,-0.565359 -0.8506,-0.783932 -0.30959,-0.237779 -0.65496,-0.422811 -1.03404,-0.552421 -0.38249,-0.130747 -0.78938,-0.196696 -1.2144,-0.196887 -0.0614,6.3e-5 -0.12304,-1.94e-4 -0.18449,0 -0.85984,1.802069 -0.26125,2.743882 -1.50585,3.425631 l -1.7973,-3.340882 c 2.13631,-1.149332 4.31687,-2.215826 6.535,-3.196704 -0.72435,-0.238507 -1.45524,-0.468838 -2.19212,-0.690397 z M 197.89593,67.6429 c 1.19723,0.875475 2.37344,1.779726 3.52743,2.711462 l -1.69137,2.094446 c 0.1685,-1.398609 -0.33917,-2.136522 -1.78748,-2.104265 0.57547,-0.846575 0.26304,-1.806319 -0.0486,-2.701643 z m -110.104389,2.428792 5.16e-4,5.17e-4 2.920752,3.860229 c -0.159707,-0.04754 -0.320788,-0.08996 -0.483174,-0.127641 -1.372084,-0.318405 -2.843095,-0.280993 -4.389397,0.178801 0.54486,-1.52602 0.96443,-2.390752 1.7632,-3.624585 0.06015,-0.09292 0.122594,-0.188647 0.188103,-0.287321 z m 1.337902,5.652885 c -0.365522,-0.03057 -0.722248,0.08149 -1.014408,0.320394 l -5.17e-4,5.16e-4 -5.17e-4,5.17e-4 c -0.291638,0.239523 -0.471298,0.566802 -0.513147,0.93121 -0.05012,0.360401 0.05721,0.706848 0.294556,0.987019 0.22521,0.265842 0.544669,0.422576 0.910022,0.459921 l 0.0026,5.16e-4 h 0.0031 c 0.36301,0.02672 0.710055,-0.0843 0.993737,-0.316776 0.28369,-0.232487 0.460801,-0.551429 0.505913,-0.912606 l 5.16e-4,-0.0026 v -0.0031 c 0.03515,-0.365561 -0.05541,-0.709319 -0.271818,-0.982369 -0.228077,-0.28777 -0.546804,-0.460993 -0.910022,-0.482658 z m 119.875367,1.841748 c -0.20111,-0.0022 -0.39469,0.01039 -0.58084,0.03772 l -0.002,0.001 h -0.003 c -0.49378,0.0837 -0.9054,0.279603 -1.2113,0.587044 -0.19377,0.194752 -0.29842,0.459523 -0.31109,0.746208 l 0.002,0.0041 -0.002,0.0041 c -0.002,0.29575 0.0928,0.568268 0.28526,0.764295 0.0482,0.04906 0.10263,0.09488 0.16329,0.138493 0.15387,0.110631 0.34802,0.206539 0.58601,0.302824 -0.005,-0.002 -0.0103,-0.0042 -0.0155,-0.0062 0.16508,0.08104 0.30082,0.14945 0.40308,0.203089 0.0864,0.04532 0.15192,0.0951 0.2005,0.146244 0.10017,0.105454 0.11571,0.170201 0.0749,0.306958 -0.0408,0.137087 -0.17557,0.339537 -0.42529,0.574642 -0.19166,0.180439 -0.78711,0.322927 -1.75494,0.297139 -0.12469,-0.0033 -0.2491,-0.0065 -0.37362,-0.0093 0.27374,0.632675 0.53867,1.266552 0.79479,1.901176 0.98767,0.01068 1.98089,0.03898 2.97914,0.08527 0.71408,0.03311 1.43076,0.07558 2.14974,0.127124 -0.0565,1.292817 -0.54201,1.765585 -0.7059,1.895491 -1.50608,1.194029 -3.00987,2.390402 -4.51187,3.589445 -0.0835,0.708202 -0.17635,1.411961 -0.27802,2.111499 l 8.83926,-7.155635 c 0.0831,0.102668 0.36706,0.474731 0.53847,0.961181 0.22351,0.634326 0.2489,1.444858 -0.58343,2.084111 l -6.30504,4.842598 c -0.13387,0.674369 -0.27545,1.343835 -0.4253,2.00918 l 9.16998,-6.80837 c 0.52788,0.710994 1.04596,1.429693 1.5534,2.155424 l -5.65392,3.953247 c -0.1456,0.101804 -0.27539,0.219403 -0.39119,0.348816 -0.35091,0.392169 -0.57497,0.894643 -0.71882,1.395781 -0.14821,0.603162 -0.0295,1.19549 0.33073,1.743562 0.4331,0.659005 1.12844,1.090579 2.06757,1.318783 0.2766,0.06721 0.57419,0.116553 0.89245,0.148828 1.33109,0.16394 2.49571,-0.0015 3.45354,-0.56689 1.06983,-0.631555 2.03664,-1.941716 1.42885,-3.163115 -0.0271,-0.05454 -0.0574,-0.108888 -0.0909,-0.162781 -1.09244,-1.75377 -4.14027,-0.01977 -2.65203,1.718759 -0.55391,0.206843 -1.17908,0.298408 -1.93218,0.218074 -0.95066,-0.116836 -1.52648,-0.395704 -1.80196,-0.81132 -0.17739,-0.267616 -0.16488,-0.537783 0.0532,-0.921391 l 5.87561,-3.967716 c 0.67651,1.001904 1.33331,2.017345 1.97042,3.044775 0.6775,1.092583 1.33242,2.199028 1.96422,3.318661 0.18962,-0.703921 0.37167,-1.413169 0.54519,-2.127519 -0.0826,-0.140865 -0.16574,-0.281759 -0.24908,-0.422196 0.44527,-0.285317 0.79378,-0.589718 1.0604,-0.911573 1.72387,0.498719 3.45045,1.054242 5.17642,1.667082 0.16939,0.06014 0.33861,0.120655 0.50798,0.181901 -0.0635,-0.118169 -0.12724,-0.236069 -0.1912,-0.353984 -0.21146,-0.389872 -0.42521,-0.778285 -0.64182,-1.165303 -1.44042,-0.739904 -2.88702,-1.435284 -4.3372,-2.085661 -0.0175,-0.149053 -0.044,-0.292771 -0.078,-0.431498 -0.47614,-1.940912 -2.4199,-2.858498 -2.62258,-4.433838 -0.008,-0.06397 -0.01,-0.139902 -0.001,-0.219625 0.0382,-0.359208 0.26759,-0.804752 0.89091,-0.622184 0.003,9.26e-4 0.007,0.0021 0.01,0.0031 0.0366,-0.02873 0.0729,-0.05757 0.10956,-0.0863 0.15314,-0.120127 0.30634,-0.240472 0.4594,-0.360702 -1.28776,-1.527852 -3.427,-0.198693 -3.00808,2.140438 0.14419,0.805143 0.57678,1.745227 1.42523,2.805514 -0.29178,-0.119273 -0.58346,-0.236743 -0.8754,-0.352434 0.52674,0.795144 1.04144,1.598034 1.5441,2.408639 0.0585,0.09441 0.11696,0.189087 0.17518,0.283704 -0.10001,0.185555 -0.2683,0.23336 -0.39119,0.22996 -0.0563,-0.09152 -0.11287,-0.183075 -0.1695,-0.274402 -0.90702,-1.462704 -1.85389,-2.900665 -2.8391,-4.311882 -0.54771,-0.784534 -1.10727,-1.56094 -1.67845,-2.32854 0.11666,-0.587146 0.57286,-1.101716 0.84801,-1.395263 0.0127,-0.375747 0.0226,-0.752609 0.0305,-1.130164 -0.91851,0.659691 -1.77207,1.482396 -2.63188,2.212785 0.48268,-0.634599 0.30906,-1.278212 0.0119,-1.83503 -0.35705,-0.669007 -0.8887,-1.204907 -0.64699,-1.474329 0.25418,-0.28348 0.50798,-0.567658 0.76119,-0.852144 -0.005,-0.428463 -0.0138,-0.85777 -0.0253,-1.288294 -3.39428,3.104686 -0.55844,0.534886 -3.95273,3.639571 0.4321,-1.456297 0.50353,-2.727117 0.1819,-3.752742 -0.15379,-0.490435 -0.39716,-0.923928 -0.73328,-1.292428 -0.30134,-0.330352 -0.68022,-0.619211 -1.12965,-0.866613 -0.45002,-0.24776 -0.95084,-0.439704 -1.49914,-0.575159 l -0.002,-5.17e-4 h -10e-4 c -0.15477,-0.03508 -0.30581,-0.06376 -0.45371,-0.08527 -0.21596,-0.0314 -0.42469,-0.04793 -0.62581,-0.05013 z m 1.17926,2.105298 c 0.56796,0.03437 1.09448,0.28353 1.58802,0.82889 0.25715,0.284155 0.3903,0.632606 0.42736,1.04128 0.01,0.110844 0.0133,0.226055 0.01,0.345715 -0.12431,-0.0085 -0.24843,-0.01636 -0.37259,-0.02429 -0.87967,-0.05614 -1.7562,-0.09872 -2.62826,-0.127641 0.26439,-0.283671 0.56313,-0.557937 0.64079,-0.910538 0.0923,-0.38357 -0.0291,-0.76177 -0.24702,-1.119312 0.19884,-0.03319 0.39256,-0.04556 0.58188,-0.03411 z M 70.652535,82.840422 c -0.763108,0.124058 -1.527869,0.259022 -2.294434,0.404626 -0.02269,0.02303 -0.04554,0.04619 -0.06821,0.06925 -0.209967,0.220522 -0.411054,0.327999 -0.648023,0.356051 -0.236645,0.02801 -0.520287,-0.03325 -0.848527,-0.21084 l -0.07286,-0.03927 c -0.549182,0.13202 -1.099272,0.270029 -1.649511,0.413412 1.238212,0.848807 2.4745,1.700177 3.708817,2.554366 -0.259309,-0.01858 -0.550006,-0.04088 -0.854728,-0.04858 -0.953308,-0.02409 -2.039892,0.09812 -2.633431,0.912089 -0.739912,1.014677 -0.709225,2.283913 -0.145211,3.559989 -0.485778,-0.08999 -0.993889,-0.08276 -1.528589,0.118339 -0.555122,0.208765 -1.025256,0.529955 -1.385962,0.95343 -0.09784,0.114866 -0.187582,0.237236 -0.268717,0.366903 -1.288092,2.058578 -2.497958,4.165647 -3.625619,6.31641 -1.215574,2.318433 -2.335798,4.687143 -3.356901,7.097753 -0.892361,2.10669 -1.708759,4.24497 -2.447395,6.41046 -0.358333,0.18049 -0.865676,0.26945 -1.56838,0.17984 -0.0291,-0.004 -0.05823,-0.007 -0.08733,-0.0109 -0.129061,0.0936 -0.258256,0.18718 -0.387057,0.28164 -0.198977,0.14594 -0.397491,0.2933 -0.595829,0.44132 1.062747,0.38533 2.228709,0.60461 3.319694,0.8909 -1.1185,0.0295 -1.560741,0.9203 -1.768368,1.61282 -0.944246,3.14946 -1.725128,6.34766 -2.338875,9.57823 -0.28626,1.50687 -0.536146,3.02052 -0.749308,4.53926 0.591933,-0.54037 1.188287,-1.07007 1.789038,-1.58905 0.142625,-0.89017 0.298374,-1.77871 0.466638,-2.66444 0.440879,-2.32067 0.969548,-4.62399 1.584399,-6.90449 l 1.794206,0.48369 c -0.802512,0.11482 -1.40846,0.68951 -1.629874,1.60559 -0.198805,0.82168 0.207365,1.54783 0.817521,1.78645 -0.944921,0.58872 -1.60438,1.37652 -1.801957,2.3704 -0.05391,0.27119 -0.06647,0.53784 -0.03979,0.79633 0.05951,0.57641 0.314536,1.11046 0.745174,1.5689 l 10e-4,0.002 c 0.5621,0.58664 1.239766,0.94166 2.004529,1.06867 0.473978,0.0787 0.929172,0.0652 1.361674,-0.0413 l 10e-4,-0.001 0.001,5.1e-4 c 0.416075,-0.10802 0.796396,-0.28973 1.133264,-0.5426 l 10e-4,-0.002 0.0026,-0.002 c 0.312139,-0.24578 0.582364,-0.54706 0.810286,-0.89968 0.01912,-0.0296 0.0378,-0.0596 0.05633,-0.0899 l 0.0016,-0.002 0.0015,-0.004 c 0.244635,-0.4195 0.412479,-0.88689 0.498161,-1.3596 0.08611,-0.47511 0.03816,-1.15333 -0.184485,-1.57562 -0.218841,-0.41502 -0.578093,-0.70096 -1.031978,-0.82269 l -0.0041,-10e-4 -0.0036,-5.2e-4 c -0.517103,-0.12068 -0.985226,-0.0815 -1.364258,0.16278 -0.42604,0.27461 -0.685379,0.75504 -0.799951,1.24282 -0.383901,1.63468 1.087543,2.113 1.551327,1.72031 -0.0059,0.14061 -0.07875,0.30523 -0.209807,0.44649 -0.210518,0.22691 -0.573844,0.39614 -1.050581,0.30385 -0.465076,-0.09 -0.814031,-0.35558 -1.045931,-0.70228 -0.303019,-0.45302 -0.402189,-1.03951 -0.300757,-1.53066 0.125867,-0.60946 0.397554,-1.08666 0.823722,-1.46141 l 0.001,-10e-4 10e-4,-0.001 c 0.430167,-0.38836 0.888319,-0.55973 1.4118,-0.5395 0.0965,0.003 0.192905,0.007 0.289388,0.0109 -0.03897,-0.34244 -0.07567,-0.68583 -0.110587,-1.02991 -0.507208,0.007 -1.106208,0.0621 -1.42782,-0.39843 -0.08379,-0.12 -0.104344,-0.35942 -0.04703,-0.58498 0.174698,-0.68747 0.879961,-1.08582 1.466061,-0.9281 l 5.94744,1.60093 c 0.610201,-0.3916 1.223127,-0.77281 1.838131,-1.1436 l -11.03912,-3.1998 c 0.246819,-0.85163 0.937597,-2.59747 2.636015,-2.05052 l 7.56698,2.43654 c 0.212041,-0.10737 0.424291,-0.2137 0.636654,-0.31884 0.437741,-0.21675 0.876169,-0.42885 1.315165,-0.63614 L 54.015183,112.4675 c 0.118118,-0.345 0.23857,-0.68941 0.360701,-1.03301 0.174519,-0.49098 0.353216,-0.98013 0.535885,-1.46813 0.245476,-0.65579 0.498007,-1.30892 0.758093,-1.95905 0.984004,2.02389 2.373082,3.28425 3.984253,4.00337 2.129131,0.9503 5.488786,0.64589 6.625435,-1.56062 0.03087,-0.0599 0.06022,-0.12155 0.08785,-0.18449 0.434512,-0.98983 0.244269,-2.28933 -0.932759,-2.82825 -0.441637,-0.20221 -0.892547,-0.24169 -1.315166,-0.0925 -0.426085,0.14147 -0.749409,0.43967 -0.936377,0.84181 -0.149579,0.32172 -0.20123,0.61546 -0.182934,0.87436 0.07204,1.01946 1.213694,1.49252 1.735294,1.2237 -0.09188,0.24338 -0.64254,0.63685 -1.338936,0.75086 -1.647315,0.35406 -3.25958,-0.67672 -3.994588,-1.25729 -0.549704,-0.43418 -1.003429,-0.93497 -1.360124,-1.50533 l -5.17e-4,-0.002 c -3.65e-4,-7.2e-4 -0.0017,-6.3e-4 -0.0016,-0.001 -0.295889,-0.49228 -0.508718,-1.01863 -0.63717,-1.58026 -0.0337,-0.14733 -0.06164,-0.29742 -0.08372,-0.44959 -0.105127,-0.72449 -0.06099,-1.52645 0.136426,-2.39985 0.05517,-0.12067 0.110717,-0.2413 0.166398,-0.36173 l 5.558317,2.56986 c 0.809907,-0.31268 1.620636,-0.61122 2.431376,-0.89503 -0.071,-0.0917 -0.142154,-0.18345 -0.212907,-0.27544 -0.643567,-0.83528 -1.099588,-1.77297 -1.358057,-2.82205 -0.04578,-0.18549 -0.08159,-0.37111 -0.109037,-0.55655 -0.106406,-0.71898 -0.08517,-1.43709 -0.01344,-2.154389 0.600631,0.536318 1.212133,1.037769 1.88774,1.407149 0.446752,0.24425 1.031685,0.50062 1.764234,0.78083 l 0.001,5.1e-4 0.0021,0.001 c 0.740215,0.26893 1.595995,0.54625 2.578654,0.84232 0.03713,0.0109 0.0745,0.0217 0.111621,0.0326 0.390009,-0.2758 0.781446,-0.54747 1.174089,-0.81442 -0.151416,-0.0506 -0.303187,-0.10065 -0.454753,-0.1509 -1.327459,-0.44129 -2.324414,-0.84441 -2.994649,-1.22628 -0.668504,-0.380879 -1.304513,-0.890466 -1.898075,-1.540468 -0.594987,-0.651504 -1.161226,-1.436521 -1.684652,-2.361096 -0.03327,-0.05904 -0.06656,-0.11812 -0.09973,-0.177251 -0.818999,0.381764 -1.636532,0.778609 -2.452047,1.191142 l -0.02636,0.147795 c -0.07719,0.430032 -0.132183,0.916016 -0.163298,1.457275 -0.03416,0.434 -0.04355,0.887904 -0.0279,1.360633 0.0038,0.11363 0.0088,0.22837 0.0155,0.34417 0.02348,0.59434 0.09056,1.19605 0.201021,1.80454 0.07072,0.39621 0.189759,0.77901 0.302307,1.16169 l -3.733105,-1.81695 c 0.410732,-0.84392 0.834376,-1.68177 1.270207,-2.513018 1.108694,-2.114592 2.297807,-4.186416 3.564123,-6.210474 l 5.17e-4,-10e-4 0.001,-0.0021 c 0.08157,-0.130364 0.181374,-0.244512 0.298689,-0.342614 0.336851,-0.281685 0.819619,-0.432663 1.44384,-0.467672 -0.126599,0.330892 -0.198747,0.80372 -0.138493,1.293461 0.08241,0.669818 0.410523,1.358156 1.161169,1.766817 0.581891,0.316798 1.200301,0.290815 1.697571,0.04082 0.863547,-0.434127 1.384128,-1.551342 0.778764,-2.854606 2.271843,0.323697 3.338142,-2.449832 1.426786,-3.372404 -0.630182,-0.304176 -1.423426,-0.405615 -2.685624,0.241845 -0.133349,-0.130664 -0.603367,-1.612575 1.603003,-1.750797 0.302498,-0.01896 0.568346,-0.01191 0.797367,0.0155 0.391851,0.04691 0.677493,0.152519 0.855762,0.287837 1.812932,1.411927 3.626999,2.822251 5.442562,4.23075 0.734979,-0.118108 1.467827,-0.225191 2.198832,-0.321428 l -9.011853,-7.103959 c 0.500766,-0.635296 1.009525,-1.264023 1.526522,-1.886189 z M 227.43935,100.16546 c -0.21802,0.7018 -0.44353,1.39787 -0.67696,2.08825 0.0594,0.12261 0.11838,0.24558 0.17725,0.36845 0.56456,1.17848 1.10448,2.36863 1.61902,3.56981 0.36195,0.84497 0.7112,1.69541 1.048,2.55075 0.41517,1.05438 0.81109,2.11597 1.18752,3.18481 l -6.12934,2.15905 c 0.16065,-0.35538 0.31915,-0.71289 0.47542,-1.07229 0.54012,-0.0648 1.05861,-0.16551 1.53118,-0.3359 0.73311,-0.26433 1.34546,-0.6644 1.81746,-1.20716 l 0.004,-0.005 0.004,-0.004 c 0.32856,-0.41663 0.56195,-0.87047 0.69453,-1.35599 0.12288,-0.42453 0.18185,-0.84904 0.17363,-1.26866 -7.7e-4,-0.0395 -0.002,-0.0784 -0.004,-0.11782 l -0.001,-0.005 -5.2e-4,-0.004 c -0.028,-0.32758 -0.0995,-0.63591 -0.21549,-0.92088 -0.26401,-0.64879 -0.65928,-1.10007 -1.10071,-1.37666 -1.32481,-0.83007 -3.01828,-0.0906 -3.18585,1.36426 -0.0135,0.11685 -0.017,0.23897 -0.0103,0.36535 0.0688,1.3027 1.51424,2.36662 2.98638,0.93225 0.0597,0.10415 0.0965,0.21184 0.11421,0.32091 0.13175,0.8128 -0.81551,1.69279 -1.45107,1.9327 -0.43094,0.16266 -0.91647,0.23187 -1.45883,0.15347 -0.36828,-0.0532 -0.71179,-0.22784 -1.01648,-0.54001 -0.26095,-0.26737 -0.49304,-0.63482 -0.69091,-1.11622 -0.17996,-0.43782 -0.20598,-0.89164 -0.14263,-1.33273 0.0814,-0.56705 0.31136,-1.11587 0.55501,-1.56786 0.30261,-0.54526 0.70618,-1.09484 1.21181,-1.64693 0.50523,-0.55165 1.10713,-1.09085 1.80868,-1.61282 0.0337,-0.025 0.0675,-0.0499 0.10128,-0.0749 -0.0155,-0.30213 -0.0325,-0.60505 -0.0512,-0.90796 -0.007,-0.10883 -0.0136,-0.21766 -0.0207,-0.32659 -0.11257,0.0711 -0.22532,0.14243 -0.33796,0.21342 -0.4819,0.30319 -0.93582,0.61609 -1.36219,0.93793 -0.26629,0.20099 -0.52201,0.40548 -0.76688,0.6134 -0.6397,0.54313 -1.16138,1.09498 -1.56425,1.65674 l -0.002,0.002 -0.003,0.004 c -0.31159,0.45811 -0.58476,0.9138 -0.81856,1.36839 -0.2348,0.45656 -0.41555,0.89906 -0.54208,1.33015 l -5.2e-4,0.002 v 0.002 c -0.0807,0.29338 -0.1374,0.57548 -0.16846,0.84749 -0.0156,0.13682 -0.0249,0.27137 -0.0274,0.40308 -0.007,0.39701 0.0553,0.7634 0.19068,1.09502 0.14432,0.35339 0.3227,0.66592 0.53744,0.93586 0.13588,0.17082 0.28674,0.32434 0.45217,0.46044 l 0.001,0.002 c 0.35527,0.29797 0.78569,0.44868 1.23145,0.56586 -0.42194,1.48186 -1.56531,2.5486 -2.85719,3.37085 -0.0761,0.27775 -0.15363,0.55471 -0.23254,0.83044 l 10.77608,-3.59358 c 0.0638,0.19125 0.12712,0.38247 0.18966,0.57413 0.16499,0.50569 0.32584,1.0129 0.48214,1.52135 -0.554,-0.22485 -1.11658,-0.31972 -1.68052,-0.14211 -0.44266,0.13942 -0.79638,0.405 -1.0294,0.77567 l -0.004,0.006 -0.003,0.005 c -0.21809,0.38528 -0.25896,0.82447 -0.12867,1.26556 0.0523,0.17718 0.13259,0.3459 0.23771,0.50488 l 0.004,0.007 0.004,0.006 c 0.11847,0.15448 0.25316,0.28624 0.40515,0.39326 0.15507,0.10919 0.32906,0.18755 0.51314,0.22944 0.18896,0.043 0.38194,0.0395 0.56586,-0.0114 0.31729,-0.0878 0.57937,-0.41717 0.84439,-0.79581 0.17601,0.0628 0.40816,0.19613 0.70332,0.49867 0.28723,0.30918 0.46063,0.58071 0.53175,0.78394 0.007,0.0213 0.0139,0.0422 0.0191,0.062 0.0839,0.31781 0.0486,0.58904 -0.11317,0.86558 l -0.002,0.002 -5.2e-4,0.002 c -0.15987,0.28843 -0.37428,0.45273 -0.68523,0.53071 -0.46114,0.11565 -1.07029,0.0535 -1.98541,-0.72864 -0.0862,-0.0736 -0.17495,-0.15361 -0.26665,-0.24029 -0.39119,-0.36944 -0.71555,-0.74361 -0.97461,-1.12396 -0.26476,-0.38869 -0.43314,-0.691 -0.5023,-0.88677 -0.0754,-0.21344 -0.12996,-0.4552 -0.16226,-0.72605 -0.0238,-0.19494 -0.0478,-0.38999 -0.0729,-0.58498 -0.68429,0.94304 -1.38328,1.86771 -2.09548,2.77347 0.1766,0.67192 0.24212,1.26316 0.19999,1.81436 -0.12537,1.64033 -1.23382,3.02942 -3.38119,5.20692 -0.0564,0.0572 -0.11365,0.11531 -0.17156,0.17363 l 11.36468,-2.37711 c 0.16946,0.8103 0.32817,1.62306 0.47594,2.43757 l -9.71569,1.76269 c -0.41617,0.5537 -0.83762,1.09957 -1.26452,1.63762 l 11.24892,-1.84433 c 0.0715,0.4363 0.13986,0.87323 0.20516,1.31051 0.24533,1.64302 0.44701,3.29277 0.6041,4.94647 0.0609,0.64068 0.11468,1.28163 0.16226,1.9234 l -0.3824,0.0284 c -0.26593,-0.62721 -0.56603,-1.2428 -0.90124,-1.84536 -0.81605,-1.46694 -1.83716,-2.85435 -3.06286,-4.13567 -0.0538,-0.0565 -0.10785,-0.11271 -0.16175,-0.16898 -0.66808,0.61743 -1.34232,1.22294 -2.02262,1.81591 0.001,0.0344 0.002,0.0684 0.003,0.10284 0.0267,1.21325 -0.29699,2.19311 -0.75757,2.95589 -1.03074,1.7071 -2.73961,2.34518 -2.96623,2.42569 -0.38853,0.33949 -0.77943,0.67462 -1.17202,1.00511 l 11.52333,-0.66611 c 0.019,0.32829 0.0362,0.65648 0.0517,0.98495 0.0257,0.54351 0.0464,1.08679 0.0625,1.63039 l -9.86968,0.29249 c -0.24648,0.24215 -0.49405,0.48228 -0.74259,0.72037 -0.24975,0.23936 -0.50064,0.47662 -0.75241,0.71158 l 11.39827,-0.14676 c 0.005,0.40136 0.008,0.80303 0.008,1.20458 1.8e-4,0.46458 -0.003,0.92917 -0.01,1.39371 l -6.89829,-0.10335 c -0.71518,-0.0107 -1.37652,0.33762 -1.92081,0.76533 -0.13523,0.11498 -0.25254,0.24166 -0.3514,0.37982 -0.24703,0.34527 -0.38052,0.75962 -0.40101,1.22732 -0.0277,0.63358 0.16774,1.24666 0.57206,1.84484 0.24633,0.36456 0.57041,0.72391 0.96842,1.07746 0.98328,0.91196 2.02559,1.45897 3.13314,1.56114 1.29097,0.11909 2.92895,-0.42866 3.0303,-1.91306 0.006,-0.0897 0.007,-0.17581 0.002,-0.25838 -0.11493,-2.11253 -2.99756,-1.68327 -3.15484,-0.20671 -0.0103,0.0964 -0.0115,0.19838 -0.003,0.30593 -0.29551,-0.0811 -0.58926,-0.19859 -0.88211,-0.3638 -0.27139,-0.15309 -0.54152,-0.34653 -0.81236,-0.58963 -0.70245,-0.65107 -1.00636,-1.21439 -0.9865,-1.71256 0.0128,-0.32077 0.18154,-0.53284 0.58291,-0.71623 l 7.08587,0.22169 c -0.0331,1.05768 -0.0839,2.11485 -0.15296,3.17086 -0.0938,1.43327 -0.22093,2.86464 -0.38086,4.29225 0.56579,-0.45979 1.12842,-0.92895 1.68724,-1.40663 0.0155,-0.16259 0.0303,-0.32517 0.045,-0.48783 0.92018,0.0516 1.67392,-0.0595 2.204,-0.43098 0.50938,-0.34997 0.84023,-0.92192 0.99787,-1.66863 0.009,-0.0444 0.0182,-0.0893 0.0263,-0.13488 1.03331,-1.2303 1.58033,-2.3936 1.86759,-3.36465 0.27017,-0.91333 0.31108,-1.65985 0.31471,-2.16369 0.002,-0.23102 -0.0209,-0.47274 -0.0656,-0.71934 -0.12999,-0.7161 -0.44494,-1.46582 -0.88677,-2.1146 -0.7213,-1.05971 -1.76181,-1.82649 -2.84272,-1.78284 -0.57816,0.0328 -0.97636,0.41157 -1.28312,0.8754 -0.0155,-0.48773 -0.0348,-0.9752 -0.0579,-1.46296 -0.0709,-1.50181 -0.17769,-3.00204 -0.31988,-4.49895 -0.15967,-1.68092 -0.36402,-3.3575 -0.6134,-5.0276 -0.0897,-0.60039 -0.18509,-1.19979 -0.28628,-1.79834 0.23928,-0.15426 0.47817,-0.30957 0.71675,-0.4656 0.92746,-0.0727 1.92082,0.77285 2.54816,1.81901 0.31472,0.52482 0.53267,1.09264 0.6041,1.60197 0.2031,1.4483 -0.0607,2.60745 -0.524,3.63854 -0.40777,0.90738 -0.9767,1.73061 -1.53892,2.59157 0.34288,-0.0428 0.68551,-0.0859 1.02836,-0.12919 0.76574,-0.90228 1.31574,-1.77091 1.70532,-2.57607 1.07228,-2.21643 0.94013,-3.93563 0.81029,-4.84208 v -5.2e-4 c -0.0271,-0.1882 -0.0717,-0.38106 -0.13178,-0.57568 -0.57904,-1.87518 -2.54419,-3.76327 -4.30878,-3.42356 -0.56728,0.11881 -0.90534,0.55324 -1.13946,1.05833 -0.14772,-0.80503 -0.30581,-1.60767 -0.47439,-2.40864 0.007,-0.0136 0.0152,-0.0274 0.0232,-0.0403 0.22598,-0.3634 0.68564,-0.44964 1.05678,-0.59945 0.31912,-0.42206 0.63573,-0.84772 0.9493,-1.27744 l -11.30164,2.55695 c 0.93596,-0.93304 1.33137,-2.19213 1.70274,-3.41581 1.38837,1.18851 2.73831,1.79876 4.03852,1.49551 0.81509,-0.1901 1.47649,-0.65999 1.93424,-1.39319 0.41737,-0.62414 0.5753,-1.32708 0.45837,-2.05518 -0.017,-0.10578 -0.0401,-0.2123 -0.0687,-0.31884 -0.33447,-1.25706 -1.16527,-2.26343 -2.31458,-2.75952 0.0726,-0.14056 0.14509,-0.28151 0.21704,-0.42271 0.2459,-0.47902 0.48804,-0.96154 0.72657,-1.44798 -0.0189,-0.0583 -0.0378,-0.11691 -0.0569,-0.17518 -0.58459,-1.79174 -1.22259,-3.56554 -1.91306,-5.31906 -0.34234,-0.86941 -0.69766,-1.73373 -1.06556,-2.5926 -0.52301,-1.22094 -1.07153,-2.43086 -1.64538,-3.62872 -0.28799,-0.60114 -0.58257,-1.19929 -0.88315,-1.79421 z M 50.972083,128.80609 c -0.524121,0.031 -1.028566,0.23143 -1.492933,0.60151 l -10e-4,0.001 c -0.634987,0.48213 -1.028809,1.18185 -1.13068,2.0252 h -0.0016 c -0.09556,0.79106 0.122486,1.54808 0.613399,2.20606 1.51e-4,2.2e-4 -1.59e-4,0.001 0,0.001 0.08172,0.11484 0.167314,0.22044 0.257349,0.31677 0.173326,0.18547 0.361752,0.33604 0.564307,0.44959 0.302148,0.16936 0.621298,0.26994 0.952396,0.29921 0.604965,0.0535 1.173053,-0.10172 1.677934,-0.44545 0.118525,-0.0807 0.233776,-0.17151 0.345199,-0.27286 0.585528,-0.53255 0.936918,-1.21993 1.035079,-2.02313 0.09335,-0.76387 -0.08802,-1.46657 -0.531751,-2.05414 l -0.001,-0.003 -0.0016,-0.002 c -0.47356,-0.59744 -1.065962,-0.96957 -1.755448,-1.07539 -0.178313,-0.0274 -0.354977,-0.0356 -0.529683,-0.0253 z m 9.092468,0.51625 c -0.02284,0.0116 -0.04589,0.023 -0.06873,0.0346 -0.985674,0.50208 -2.110333,1.21607 -3.345015,2.16576 l -0.001,0.001 c -1.249536,0.94995 -2.243411,1.87259 -2.982764,2.73214 -0.03303,0.0384 -0.06624,0.0768 -0.09922,0.11524 -0.07789,0.0908 -0.155446,0.18155 -0.233061,0.27285 l 2.990515,0.2744 c 0.0266,-0.0393 0.05293,-0.0786 0.07958,-0.11782 0.03349,-0.0497 0.06818,-0.0998 0.103353,-0.15038 0.23786,-0.34214 0.51387,-0.70531 0.82889,-1.08572 l 0.0016,-0.001 0.001,-0.002 c 0.349328,-0.43807 0.726909,-0.87522 1.134814,-1.30948 l 0.0016,-10e-4 0.001,-0.001 c 0.393997,-0.43417 0.815535,-0.85251 1.264005,-1.25471 0.448955,-0.40263 0.895884,-0.76743 1.338937,-1.09347 0.154317,-0.11325 0.308771,-0.22562 0.463537,-0.33745 z m -9.68313,1.10794 c 0.08981,-0.0157 0.20001,-0.0175 0.33383,5.2e-4 0.47772,0.0552 0.844523,0.25342 1.166337,0.72347 0.315148,0.4603 0.386286,0.94329 0.329179,1.44849 -0.02049,0.18122 -0.06707,0.25591 -0.152446,0.31471 -0.08519,0.0587 -0.244836,0.0989 -0.490409,0.0724 -0.221342,-0.0239 -0.432481,-0.0867 -0.63252,-0.20051 -0.216682,-0.12336 -0.399803,-0.28937 -0.559656,-0.48886 -0.342304,-0.44831 -0.433078,-0.88649 -0.419612,-1.2454 0.01348,-0.35864 0.112384,-0.46749 0.214974,-0.54209 0.05133,-0.0373 0.120514,-0.0669 0.210323,-0.0827 z m 176.208879,2.07584 c -0.34576,0.0427 -0.65408,0.20789 -0.88883,0.46406 l -0.002,0.002 -0.002,0.002 c -0.22466,0.25947 -0.3271,0.5722 -0.29197,0.89504 0.0351,0.32284 0.20228,0.6078 0.47749,0.81287 l 0.002,0.002 0.003,0.002 c 0.15648,0.10987 0.32814,0.18785 0.50901,0.23048 0.14798,0.0349 0.30226,0.0462 0.45837,0.0315 0.163,-0.0153 0.31689,-0.0554 0.45682,-0.11834 0.17402,-0.0782 0.32604,-0.19174 0.44752,-0.33693 0.22692,-0.25906 0.33385,-0.57948 0.29817,-0.91106 l -5.2e-4,-0.001 c -0.0365,-0.33148 -0.20895,-0.61954 -0.48627,-0.82372 -0.27054,-0.2088 -0.61671,-0.29517 -0.98134,-0.25012 z m 4.44108,0.33228 c 0.49995,0.58865 0.86694,1.06179 1.17667,1.52549 0.34311,0.51368 0.64275,1.05553 0.9989,1.79162 h -5.1e-4 l -4.82762,0.3576 c 0.71619,-0.54566 1.3281,-1.19605 1.82005,-1.95853 0.33555,-0.52007 0.61507,-1.09166 0.83251,-1.71618 z m -181.658166,1.26039 c -0.56255,0.5261 -1.120842,1.06197 -1.674317,1.60766 -0.02629,0.35028 -0.05044,0.70056 -0.07286,1.05109 -0.473116,0.42452 -1.153293,0.54077 -1.554428,0.59583 -0.254491,0.31593 -0.507752,0.63461 -0.759126,0.9555 1.126832,0.0943 2.310424,7.6e-4 3.438549,-0.008 -0.67489,0.17303 -1.253186,0.88837 -1.278991,1.77044 -0.02734,0.93439 -0.04083,1.86923 -0.04082,2.80396 8e-6,3.39355 0.180822,6.78636 0.542086,10.16062 0.44583,-0.63672 0.898197,-1.2646 1.356507,-1.88361 -0.23979,-2.71028 -0.361713,-5.43048 -0.365353,-8.15144 l 0.383956,-5.1e-4 c 0.755099,2.50065 1.947704,4.87953 3.578593,7.05693 0.0507,0.068 0.101073,0.13584 0.151929,0.20361 0.700627,-0.63953 1.408084,-1.26496 2.121834,-1.87638 0.0012,-0.0388 0.0024,-0.078 0.0036,-0.11678 0.104762,-3.25045 2.100743,-4.78962 3.234945,-5.39244 0.424694,-0.22582 0.74717,-0.33305 0.836125,-0.3607 0.412509,-0.35061 0.827054,-0.6959 1.243851,-1.03611 l -11.540897,-0.19482 c 0.0231,-1.36984 0.24086,-2.1103 1.213879,-2.58073 0.236158,-0.11416 0.496833,-0.16638 0.794267,-0.15244 l 7.941634,0.37207 c 0.5405,-0.4871 1.084824,-0.96476 1.633492,-1.43247 l -11.398787,-0.74259 c 0.05757,-0.88373 0.127791,-1.76657 0.210323,-2.64842 z m 189.000346,6.72931 c 0.008,5.8e-4 0.0161,0.001 0.0243,0.002 0.8817,0.0786 1.69574,0.98197 2.16679,2.04484 0.0294,0.0664 0.0576,0.13322 0.0842,0.2005 -1.17284,0.24218 -1.7055,1.33174 -1.94097,2.57762 -0.19857,1.05069 -0.19172,2.25539 -0.14521,3.1564 0.008,0.1193 0.007,0.22722 -0.003,0.32505 -0.0739,0.70679 -0.59909,0.86186 -1.20613,0.72243 3.3e-4,-0.004 7.1e-4,-0.009 10e-4,-0.0134 0.0193,-0.26128 0.0377,-0.52251 0.0548,-0.78393 0.075,-1.14541 0.12901,-2.29234 0.16227,-3.43959 0.0265,-0.91484 0.0398,-1.82988 0.0398,-2.74505 -1e-5,-0.56504 -0.005,-1.12997 -0.015,-1.69447 0.25737,-0.11572 0.51458,-0.23236 0.77153,-0.34985 z m -181.944963,2.16214 c -1.267278,0.93409 -2.262581,2.22987 -2.89388,3.92017 -0.949412,-1.44457 -1.38925,-2.32811 -1.947168,-3.91345 z m 184.526723,1.28106 c 0.0159,0.14008 0.0261,0.27753 0.0248,0.40876 -0.004,0.36707 -0.0343,0.71173 -0.0873,1.03663 -0.0893,0.54755 -0.24247,1.04002 -0.4408,1.49345 -0.0416,-0.48705 -0.0802,-1.02611 -0.0574,-1.50792 0.0303,-0.64015 0.16861,-1.19261 0.56069,-1.43092 z M 142.875,187.45109 c 28.41033,0 54.09198,11.39538 72.86635,29.80955 -18.77258,18.39082 -44.47553,29.73565 -72.86635,29.73565 -28.39082,0 -54.093771,-11.34483 -72.866353,-29.73565 18.774379,-18.41417 44.456013,-29.80955 72.866353,-29.80955 z m -26.38599,26.86864 c -1.00477,-0.0525 -2.20951,0.24472 -3.16414,0.83665 -0.6366,0.3947 -1.17093,0.92733 -1.45056,1.5937 -0.22679,0.56302 -0.10315,1.09133 0.15606,1.57303 0.0147,0.0273 0.03,0.0542 0.0455,0.0811 -0.0225,-0.009 -0.0448,-0.0182 -0.0672,-0.0274 -0.87041,-0.35584 -1.73457,-0.72638 -2.59209,-1.11208 0.24321,0.72835 0.49824,1.45656 0.76533,2.18437 0.39401,0.16822 0.7894,0.33345 1.18597,0.49557 0.0842,0.0344 0.1684,0.0687 0.2527,0.10284 l -4.09381,10.10791 c 0.36295,0.75266 0.7385,1.50378 1.12655,2.25309 l 4.49481,-11.75949 c 0.72666,0.27775 1.45694,0.54527 2.19108,0.80254 1.29134,0.45252 2.59415,0.87308 3.90622,1.26142 0.68294,0.20213 1.36831,0.39579 2.05621,0.58033 l -0.10955,0.40876 c -0.76301,0.0616 -1.53439,0.14826 -2.31666,0.26045 -1.53641,0.22033 -3.11291,0.53826 -4.75113,0.95601 -0.22012,0.0561 -0.4412,0.11444 -0.66353,0.17415 -0.085,0.0227 -0.17013,0.0448 -0.25528,0.0672 0.12081,0.43866 0.2452,0.87753 0.37311,1.3162 0.15746,0.54001 0.3201,1.0802 0.48834,1.62005 0.0377,0.0171 0.0754,0.0341 0.11317,0.0512 1.2602,0.56531 2.1731,1.28903 2.84789,2.05673 1.62534,1.8491 1.84103,3.95416 1.85983,4.22971 0.20607,0.39203 0.41562,0.78327 0.62839,1.17409 0.0827,0.15185 0.1654,0.30362 0.24908,0.45527 l 3.06855,-12.37392 c 1.31637,0.32644 2.64108,0.62087 3.97185,0.88263 1.20347,0.23672 2.41183,0.44661 3.62458,0.62994 0.96369,0.14567 1.93031,0.27479 2.89853,0.38654 0.43873,0.0506 0.87774,0.0974 1.31723,0.14107 l -0.709,7.14169 c -0.3114,-0.33005 -0.61969,-0.66159 -0.92397,-0.99477 0.21111,-0.56626 0.36611,-1.1275 0.42581,-1.68001 0.0924,-0.85535 -0.0156,-1.65855 -0.31212,-2.3921 l -0.003,-0.006 -0.002,-0.006 c -0.0126,-0.0274 -0.0252,-0.0546 -0.0382,-0.0816 -0.23888,-0.49575 -0.54362,-0.92604 -0.91054,-1.28571 -0.36655,-0.3705 -0.76204,-0.67059 -1.18856,-0.89607 l -0.006,-0.001 -0.004,-0.002 c -0.18607,-0.0898 -0.37314,-0.16203 -0.56121,-0.21601 -0.12646,-0.0363 -0.25345,-0.0644 -0.38085,-0.0842 -2.82283,-0.4402 -4.57741,2.89581 -2.16525,4.23592 0.62613,0.34785 1.36379,0.3567 1.91203,0.0434 0.63654,-0.36376 1.00137,-1.14477 0.71262,-2.31613 1.0871,0.002 1.5829,1.65072 1.4764,2.49855 -0.0633,0.50365 -0.24977,1.0153 -0.62994,1.4981 -0.37833,0.48042 -1.01272,0.76969 -1.92856,0.7643 -0.2431,-0.001 -0.50622,-0.0235 -0.78859,-0.0687 -1.29825,-0.2079 -2.14473,-1.26442 -2.63033,-2.17145 -0.0485,-0.0934 -0.0956,-0.18909 -0.14056,-0.2868 -0.25523,-0.55469 -0.45246,-1.17744 -0.59118,-1.8681 -0.16313,-0.8123 -0.23423,-1.69914 -0.21445,-2.66392 0.001,-0.0463 0.002,-0.0927 0.003,-0.13901 -0.35527,-0.25277 -0.70758,-0.50754 -1.05679,-0.76482 -0.0179,0.146 -0.0355,0.29168 -0.0532,0.4377 -0.12379,1.01384 -0.16988,1.98139 -0.13229,2.90474 0.0377,0.9274 0.17794,1.75823 0.42943,2.49287 l 5.1e-4,0.002 0.001,0.005 c 0.21676,0.58373 0.47044,1.13043 0.76119,1.64021 0.10913,0.19135 0.22317,0.37457 0.3421,0.54932 0.19924,0.29274 0.41225,0.56233 0.63872,0.80822 l 10e-4,0.001 0.002,0.002 c 0.37546,0.39417 0.77246,0.71921 1.19011,0.971 0.42134,0.25402 0.86164,0.41958 1.31155,0.49041 0.19162,0.0302 0.3796,0.0499 0.56379,0.0599 0.56825,0.0309 1.09916,-0.0345 1.58285,-0.19843 l 0.002,-5.2e-4 c 0.53922,-0.1775 0.95269,-0.51547 1.32653,-0.88884 0.15454,0.13112 0.29968,0.26729 0.43667,0.40877 1.09884,1.13477 1.65493,2.59203 1.95285,4.09122 0.30362,0.20697 0.60925,0.41246 0.91674,0.6165 l 0.9958,-12.50311 c 0.86683,0.0828 1.43632,0.24554 1.84279,0.75861 0.13543,0.17096 0.25211,0.38039 0.35553,0.6382 0.10454,0.26058 0.15188,0.54912 0.13539,0.87747 l -0.44028,8.76845 c 0.56719,0.60039 1.14547,1.19611 1.73478,1.78594 l 0.39274,-12.6106 c 2.72462,0.0849 1.80905,0.0413 0.99373,0.0258 -0.81531,-0.0155 -1.53007,0.0154 1.59939,0.0155 0.78993,3e-5 1.94123,-0.0106 3.32796,-0.0661 0.84027,-0.0336 1.81723,-0.0856 2.9068,-0.16744 l 0.032,0.42272 c -0.95634,0.42421 -1.91119,0.89758 -2.87166,1.42368 -1.12212,0.6147 -2.25056,1.30043 -3.39514,2.06138 -0.18944,0.12594 -0.37913,0.25389 -0.56947,0.38395 -0.0727,0.0495 -0.14565,0.099 -0.2186,0.14831 0.25936,0.3742 0.52201,0.74695 0.78807,1.1188 0.32724,0.45738 0.65948,0.91316 0.99684,1.36684 0.0411,0.004 0.0824,0.007 0.12351,0.0103 0.96079,0.0815 1.78625,0.29144 2.50165,0.58188 2.03149,0.8249 3.1723,2.30533 3.6928,3.1719 0.1902,0.31659 0.29331,0.5451 0.32659,0.6227 0.45005,0.4191 0.9059,0.83489 1.36736,1.24747 l -1.19579,-12.69276 c 0.64178,-0.0605 1.28269,-0.12824 1.92288,-0.20361 0.26154,-0.0308 0.52269,-0.0628 0.78393,-0.0961 l 1.37821,10.81846 c 0.68511,0.47865 1.38031,0.94992 2.08566,1.41335 l -1.83658,-12.45557 c 0.33365,-0.0493 0.66692,-0.10062 0.99994,-0.15399 0.55683,-0.0893 1.1127,-0.18419 1.6676,-0.28474 l 1.35599,7.49825 c 0.14123,0.78107 0.70451,1.40947 1.37563,1.88464 0.23162,0.15076 0.48443,0.26027 0.75395,0.32918 0.4496,0.11494 0.94615,0.11592 1.46917,0.003 0.60018,-0.12947 1.14762,-0.39647 1.634,-0.79013 0.56908,-0.46054 1.05373,-1.09373 1.44384,-1.88258 0.44917,-0.86009 0.69026,-1.69054 0.73019,-2.47891 0.0243,-0.48062 -0.0265,-0.94549 -0.14986,-1.39372 -0.11579,-0.4206 -0.3094,-0.8475 -0.56482,-1.22731 -0.58698,-0.87286 -1.49145,-1.49453 -2.5647,-1.23094 -0.30322,0.0745 -0.5507,0.19358 -0.74828,0.34469 -1.15129,0.88051 -0.62545,2.92004 0.74104,3.14502 0.27379,0.0451 0.57893,0.0149 0.90382,-0.11678 0.0194,0.61669 -0.1027,1.27491 -0.46199,1.99316 -0.0204,0.0408 -0.0416,0.0818 -0.0636,0.12298 -0.53445,0.9645 -1.13346,1.47041 -1.74253,1.59887 -0.39206,0.0827 -0.69635,-0.0381 -1.01854,-0.41858 l -1.53944,-7.67756 c 0.91085,-0.18263 1.81857,-0.38075 2.72283,-0.59377 0.93902,-0.2212 1.87419,-0.45838 2.805,-0.7121 0.67748,-0.18466 1.3526,-0.37805 2.0252,-0.57981 -0.68035,-0.38524 -1.35173,-0.77889 -2.01383,-1.18029 -0.15215,0.0424 -0.30444,0.0846 -0.45682,0.12609 -0.006,0.002 -0.0114,0.003 -0.0171,0.005 -0.29728,-0.97299 -0.68261,-1.7162 -1.20302,-2.14561 -0.52448,-0.44064 -1.18425,-0.59869 -1.95079,-0.51986 -0.14203,-0.0743 -0.28153,-0.1443 -0.41806,-0.21033 -1.15442,-0.5582 -2.112,-0.82797 -2.90887,-0.94154 -0.9343,-0.13314 -1.63392,-0.049 -2.10323,0.0315 -0.26954,0.0462 -0.54877,0.13972 -0.82734,0.27182 -1.17367,0.55653 -2.40548,1.83882 -2.79053,3.22564 -0.10756,0.38741 -0.14985,0.78634 -0.10438,1.18287 0.0412,0.31863 0.16319,0.58053 0.33796,0.80047 0.17346,0.21828 0.39855,0.39441 0.64596,0.54209 -0.19116,0.0239 -0.38281,0.0467 -0.57413,0.0692 -1.06125,0.12496 -2.12461,0.22949 -3.18998,0.31265 -1.0279,0.0802 -2.05768,0.1407 -3.08767,0.1819 -1.08588,0.0435 -2.17262,0.0651 -3.25975,0.0651 -0.87963,0 -1.75948,-0.0139 -2.6386,-0.0424 -0.38697,-0.50387 -0.49058,-1.25485 -0.5395,-1.69447 -0.27213,-0.27201 -0.54178,-0.54536 -0.80822,-0.82011 -0.10143,1.28826 -0.0344,2.50614 -0.0367,3.79512 -0.0838,-0.40982 -0.3154,-0.78704 -0.63407,-1.05058 -0.25906,-0.21422 -0.57666,-0.35433 -0.92552,-0.37828 -1.25886,-0.0864 -2.51591,-0.20206 -3.76928,-0.34674 -0.94851,-0.1095 -1.89505,-0.23555 -2.83911,-0.37828 -1.18804,-0.17961 -2.37224,-0.38561 -3.5512,-0.61753 -1.40179,-0.27576 -2.79633,-0.58842 -4.18166,-0.93741 -1.0808,-0.27227 -2.15586,-0.5663 -3.22461,-0.88263 -1.28534,-0.38046 -2.56162,-0.79277 -3.82664,-1.2361 -0.86882,-0.30449 -1.7325,-0.62384 -2.59054,-0.95757 -4e-5,-0.30996 0.001,-0.61961 0.004,-0.92914 0.57497,-1.16691 2.45898,-1.69709 3.79512,-1.56166 0.232,0.0235 0.4508,0.067 0.64699,0.13177 1.22998,0.4061 2.06114,1.06621 2.76314,1.87689 0.67714,0.78198 1.21764,1.68471 1.86035,2.60191 0.0786,-0.37348 0.15758,-0.74698 0.23667,-1.12035 -0.58677,-1.15257 -1.16134,-2.0493 -1.71875,-2.759 -1.23302,-1.56991 -2.38258,-2.20555 -3.16053,-2.52181 -0.11821,-0.0481 -0.22768,-0.0889 -0.3266,-0.12402 h -0.001 l 0.003,0.002 -5.2e-4,5.1e-4 c -0.27389,-0.0974 -0.58646,-0.15354 -0.92139,-0.17105 z m 58.47137,3.64113 c -0.26746,-0.0209 -0.50353,0.007 -0.71107,0.0935 l -5.1e-4,0.001 5.1e-4,5.2e-4 c -0.53468,0.22313 -1.00709,0.57879 -1.41955,1.06143 -0.0172,0.0202 -0.0346,0.0404 -0.0517,0.061 -0.41997,0.50846 -0.77836,1.11003 -1.08003,1.80299 l -0.003,0.003 -5.1e-4,0.005 c -0.57316,1.46543 -0.69439,2.84496 -0.25839,4.1 0.67092,1.93124 3.05394,1.73641 3.98736,0.63149 0.3607,-0.42698 0.50088,-0.97776 0.2589,-1.57717 -0.24552,-0.60815 -0.73954,-1.03996 -1.30225,-1.079 -0.27145,-0.0188 -0.56026,0.0531 -0.85059,0.2403 -0.0184,-0.26037 -0.0478,-0.5187 -0.0165,-0.77928 0.0419,-0.34977 0.11697,-0.71541 0.22428,-1.09658 0.0112,-0.04 0.0227,-0.0801 0.0346,-0.1204 0.12758,-0.40654 0.30557,-0.78868 0.524,-1.14619 0.19516,-0.2802 0.4224,-0.46921 0.69763,-0.58446 0.38197,-0.15995 0.5414,-0.13288 0.54364,-0.12764 l 3.29437,7.72408 c -1.13163,-0.23474 -2.04609,-0.19999 -2.84944,-0.032 -1.48088,0.3096 -2.57564,1.07476 -3.73569,1.33738 -0.44107,0.0999 -0.88998,0.12628 -1.36581,0.0238 -1.43978,-0.31016 -1.8938,-2.68111 -1.57044,-4.07831 0.0147,-0.0651 0.0294,-0.12978 0.0439,-0.19482 -0.32807,-0.1798 -0.65412,-0.36171 -0.97823,-0.54519 -0.035,0.0907 -0.0706,0.18167 -0.10594,0.27234 -0.1067,0.27243 -0.1889,0.54847 -0.24856,0.82631 -0.42833,1.99456 0.31302,4.05805 1.56682,5.10408 0.23657,0.19736 0.49012,0.35696 0.75448,0.47129 0.91918,0.3975 1.79843,0.43689 2.64377,0.2775 1.3037,-0.24581 2.52249,-0.96268 3.74964,-1.57562 0.29643,-0.14806 0.59395,-0.29039 0.89452,-0.41858 1.30124,-0.55491 2.02915,0.0266 2.97914,1.03302 0.41514,0.4398 0.76604,0.76337 1.52084,0.478 l -4.96972,-11.04893 c -0.20178,-0.44864 -0.66459,-0.74099 -1.30121,-0.94465 -0.33307,-0.1083 -0.63223,-0.17804 -0.89969,-0.19895 z m -16.82636,1.32963 c 0.45957,-0.005 0.89288,0.0452 1.31154,0.13643 -0.38439,0.14736 -0.80296,0.29354 -1.20819,0.3793 -0.6486,0.13728 -1.24993,0.1165 -1.57251,-0.29765 0.11873,-0.045 0.24217,-0.0716 0.36483,-0.10181 v -5.1e-4 c 0.3873,-0.0756 0.75316,-0.11181 1.10433,-0.11576 z m -2.50166,0.75086 h 5.2e-4 c 0.4554,1.2953 1.66219,1.67339 2.97398,1.61644 0.94582,-0.0411 1.91554,-0.30617 2.68924,-0.58653 0.0581,-0.0211 0.11486,-0.042 0.17053,-0.063 0.88505,-0.35596 1.29599,0.1687 1.38183,0.95188 -0.004,0.001 -0.009,0.002 -0.0134,0.003 -0.41811,0.10549 -0.83706,0.20811 -1.25677,0.30695 -0.90675,0.21355 -1.81711,0.41142 -2.73058,0.59377 -1.02734,0.20508 -2.05837,0.39016 -3.09284,0.55552 -0.4822,0.0771 -0.9655,0.15018 -1.449,0.21859 -0.15136,-0.26963 -0.30155,-0.53987 -0.45062,-0.81029 -0.0485,-0.90238 0.60314,-1.83785 1.40456,-2.5032 0.12103,-0.10049 0.24555,-0.19541 0.37259,-0.28319 z m -35.08158,6.04769 -5.2e-4,5.2e-4 -1.38492,5.16402 c -0.39334,-1.01349 -0.92844,-1.95567 -1.61179,-2.82566 -0.40918,-0.52095 -0.87181,-1.01637 -1.39061,-1.48777 0.80597,-0.2158 1.38423,-0.36607 1.9761,-0.48989 0.76055,-0.15911 1.42086,-0.24828 2.41174,-0.36122 z m 28.77809,2.70165 0.40049,5.33197 c -0.9143,-1.06969 -2.01157,-1.9476 -3.30936,-2.6293 -0.30537,-0.16038 -0.62212,-0.31012 -0.95033,-0.44906 0.3385,-0.23094 0.62898,-0.42784 0.90744,-0.61134 1.03417,-0.68148 1.68169,-1.02791 2.95176,-1.64227 z m -3.25768,5.5888 c -0.4159,0.0145 -0.79416,0.1769 -1.08417,0.46251 -0.29366,0.27573 -0.44911,0.64677 -0.44184,1.05213 0.007,0.38487 0.17547,0.74233 0.48008,1.02681 l 0.004,0.002 0.002,0.002 c 0.31003,0.27343 0.712,0.41348 1.14308,0.39842 0.16565,-0.006 0.32501,-0.0337 0.47543,-0.0832 0.24078,-0.0792 0.45752,-0.2126 0.63613,-0.39377 l 0.003,-0.002 0.003,-0.003 c 0.28401,-0.30504 0.42822,-0.67289 0.40825,-1.0573 -0.021,-0.40488 -0.20199,-0.76398 -0.51418,-1.01854 -0.19015,-0.16275 -0.4104,-0.27671 -0.64854,-0.33694 -0.14925,-0.0377 -0.30581,-0.0547 -0.46612,-0.0491 z" /><path
         id="path8"
         style="vector-effect:none;fill:#ff0000;fill-opacity:1;fill-rule:evenodd;stroke-width:0.27879;stop-color:#000000"
         d="M 177.12925,142.875 A 34.25425,34.25425 0 0 1 142.875,177.12925 34.25425,34.25425 0 0 1 108.62075,142.875 34.25425,34.25425 0 0 1 142.875,108.62075 34.25425,34.25425 0 0 1 177.12925,142.875 Z" /></g></g><metadata
     id="metadata27"><rdf:RDF><cc:Work
         rdf:about=""><dc:title>Bangladesh Road Transport Authority (BRTA) - বাংলাদেশ সড়ক পরিবহন কর্তৃপক্ষ (বিআরটিএ)</dc:title></cc:Work></rdf:RDF></metadata></svg>
